
<svg width="50" height="50" viewBox="0 0 50 50" fill="none" xmlns="http://www.w3.org/2000/svg">
  <path d="M25 5C13.9543 5 5 13.9543 5 25C5 36.0457 13.9543 45 25 45C36.0457 45 45 36.0457 45 25C45 13.9543 36.0457 5 25 5Z" stroke="white" stroke-width="2"/>
  <path d="M25 38C31.6274 38 37 32.6274 37 26C37 19.3726 31.6274 14 25 14C18.3726 14 13 19.3726 13 26C13 32.6274 18.3726 38 25 38Z" stroke="white" stroke-width="2"/>
  <path d="M25 31C28.3137 31 31 28.3137 31 25C31 21.6863 28.3137 19 25 19C21.6863 19 19 21.6863 19 25C19 28.3137 21.6863 31 25 31Z" fill="white"/>
</svg>
